<svg xmlns="http://www.w3.org/2000/svg" width="260" height="64" viewBox="0 0 260 64" role="img" aria-label="Play live" shape-rendering="crispEdges">
<title>Play live</title>
<style>
.nudge { animation: nudge 1.4s ease-in-out infinite; }
@keyframes nudge { 0%,100% { transform: translateX(0); } 50% { transform: translateX(4px); } }
@media (prefers-reduced-motion: reduce) { * { animation: none !important; } }
</style>
<defs></defs>
<rect x="6" y="6" width="254" height="58" rx="12" fill="#141414"/>
<rect x="2" y="2" width="250" height="54" rx="12" fill="#F28C28" stroke="#141414" stroke-width="4"/>
<g fill="#141414" class="nudge"><rect x="62" y="22" width="2" height="2"/><rect x="62" y="24" width="4" height="2"/><rect x="62" y="26" width="6" height="2"/><rect x="62" y="28" width="8" height="2"/><rect x="62" y="30" width="6" height="2"/><rect x="62" y="32" width="4" height="2"/><rect x="62" y="34" width="2" height="2"/><rect x="86" y="22" width="8" height="2"/><rect x="86" y="24" width="2" height="2"/><rect x="94" y="24" width="2" height="2"/><rect x="86" y="26" width="2" height="2"/><rect x="94" y="26" width="2" height="2"/><rect x="86" y="28" width="8" height="2"/><rect x="86" y="30" width="2" height="2"/><rect x="86" y="32" width="2" height="2"/><rect x="86" y="34" width="2" height="2"/><rect x="98" y="22" width="2" height="2"/><rect x="98" y="24" width="2" height="2"/><rect x="98" y="26" width="2" height="2"/><rect x="98" y="28" width="2" height="2"/><rect x="98" y="30" width="2" height="2"/><rect x="98" y="32" width="2" height="2"/><rect x="98" y="34" width="10" height="2"/><rect x="112" y="22" width="6" height="2"/><rect x="110" y="24" width="2" height="2"/><rect x="118" y="24" width="2" height="2"/><rect x="110" y="26" width="2" height="2"/><rect x="118" y="26" width="2" height="2"/><rect x="110" y="28" width="10" height="2"/><rect x="110" y="30" width="2" height="2"/><rect x="118" y="30" width="2" height="2"/><rect x="110" y="32" width="2" height="2"/><rect x="118" y="32" width="2" height="2"/><rect x="110" y="34" width="2" height="2"/><rect x="118" y="34" width="2" height="2"/><rect x="122" y="22" width="2" height="2"/><rect x="130" y="22" width="2" height="2"/><rect x="122" y="24" width="2" height="2"/><rect x="130" y="24" width="2" height="2"/><rect x="124" y="26" width="2" height="2"/><rect x="128" y="26" width="2" height="2"/><rect x="126" y="28" width="2" height="2"/><rect x="126" y="30" width="2" height="2"/><rect x="126" y="32" width="2" height="2"/><rect x="126" y="34" width="2" height="2"/><rect x="146" y="22" width="2" height="2"/><rect x="146" y="24" width="2" height="2"/><rect x="146" y="26" width="2" height="2"/><rect x="146" y="28" width="2" height="2"/><rect x="146" y="30" width="2" height="2"/><rect x="146" y="32" width="2" height="2"/><rect x="146" y="34" width="10" height="2"/><rect x="160" y="22" width="6" height="2"/><rect x="162" y="24" width="2" height="2"/><rect x="162" y="26" width="2" height="2"/><rect x="162" y="28" width="2" height="2"/><rect x="162" y="30" width="2" height="2"/><rect x="162" y="32" width="2" height="2"/><rect x="160" y="34" width="6" height="2"/><rect x="170" y="22" width="2" height="2"/><rect x="178" y="22" width="2" height="2"/><rect x="170" y="24" width="2" height="2"/><rect x="178" y="24" width="2" height="2"/><rect x="170" y="26" width="2" height="2"/><rect x="178" y="26" width="2" height="2"/><rect x="170" y="28" width="2" height="2"/><rect x="178" y="28" width="2" height="2"/><rect x="170" y="30" width="2" height="2"/><rect x="178" y="30" width="2" height="2"/><rect x="172" y="32" width="2" height="2"/><rect x="176" y="32" width="2" height="2"/><rect x="174" y="34" width="2" height="2"/><rect x="182" y="22" width="10" height="2"/><rect x="182" y="24" width="2" height="2"/><rect x="182" y="26" width="2" height="2"/><rect x="182" y="28" width="8" height="2"/><rect x="182" y="30" width="2" height="2"/><rect x="182" y="32" width="2" height="2"/><rect x="182" y="34" width="10" height="2"/></g>
</svg>
