<svg xmlns="http://www.w3.org/2000/svg" width="840" height="100" aria-label="Game over? Play again at the live app." role="img" shape-rendering="crispEdges" viewBox="0 0 840 100"><title>Game over? Play again at the live app.</title><style>@keyframes blink{0%,55%{opacity:1}56%{opacity:0}}.blink{animation:blink 1.1s linear infinite}@media (prefers-reduced-motion:reduce){*{animation:none!important}}</style><rect width="832" height="92" x="8" y="8" fill="#F28C28" rx="16"/><rect width="826" height="86" x="3" y="3" fill="#FAF6EC" stroke="#141414" stroke-width="6" rx="16"/><g fill="#F28C28"><rect width="9" height="3" x="331" y="22"/><rect width="3" height="3" x="328" y="25"/><rect width="3" height="3" x="340" y="25"/><rect width="3" height="3" x="328" y="28"/><rect width="3" height="3" x="328" y="31"/><rect width="9" height="3" x="334" y="31"/><rect width="3" height="3" x="328" y="34"/><rect width="3" height="3" x="340" y="34"/><rect width="3" height="3" x="328" y="37"/><rect width="3" height="3" x="340" y="37"/><rect width="12" height="3" x="331" y="40"/><rect width="9" height="3" x="349" y="22"/><rect width="3" height="3" x="346" y="25"/><rect width="3" height="3" x="358" y="25"/><rect width="3" height="3" x="346" y="28"/><rect width="3" height="3" x="358" y="28"/><rect width="15" height="3" x="346" y="31"/><rect width="3" height="3" x="346" y="34"/><rect width="3" height="3" x="358" y="34"/><rect width="3" height="3" x="346" y="37"/><rect width="3" height="3" x="358" y="37"/><rect width="3" height="3" x="346" y="40"/><rect width="3" height="3" x="358" y="40"/><rect width="3" height="3" x="364" y="22"/><rect width="3" height="3" x="376" y="22"/><rect width="6" height="3" x="364" y="25"/><rect width="6" height="3" x="373" y="25"/><rect width="3" height="3" x="364" y="28"/><rect width="3" height="3" x="370" y="28"/><rect width="3" height="3" x="376" y="28"/><rect width="3" height="3" x="364" y="31"/><rect width="3" height="3" x="370" y="31"/><rect width="3" height="3" x="376" y="31"/><rect width="3" height="3" x="364" y="34"/><rect width="3" height="3" x="376" y="34"/><rect width="3" height="3" x="364" y="37"/><rect width="3" height="3" x="376" y="37"/><rect width="3" height="3" x="364" y="40"/><rect width="3" height="3" x="376" y="40"/><rect width="15" height="3" x="382" y="22"/><rect width="3" height="3" x="382" y="25"/><rect width="3" height="3" x="382" y="28"/><rect width="12" height="3" x="382" y="31"/><rect width="3" height="3" x="382" y="34"/><rect width="3" height="3" x="382" y="37"/><rect width="15" height="3" x="382" y="40"/><rect width="9" height="3" x="421" y="22"/><rect width="3" height="3" x="418" y="25"/><rect width="3" height="3" x="430" y="25"/><rect width="3" height="3" x="418" y="28"/><rect width="3" height="3" x="430" y="28"/><rect width="3" height="3" x="418" y="31"/><rect width="3" height="3" x="430" y="31"/><rect width="3" height="3" x="418" y="34"/><rect width="3" height="3" x="430" y="34"/><rect width="3" height="3" x="418" y="37"/><rect width="3" height="3" x="430" y="37"/><rect width="9" height="3" x="421" y="40"/><rect width="3" height="3" x="436" y="22"/><rect width="3" height="3" x="448" y="22"/><rect width="3" height="3" x="436" y="25"/><rect width="3" height="3" x="448" y="25"/><rect width="3" height="3" x="436" y="28"/><rect width="3" height="3" x="448" y="28"/><rect width="3" height="3" x="436" y="31"/><rect width="3" height="3" x="448" y="31"/><rect width="3" height="3" x="436" y="34"/><rect width="3" height="3" x="448" y="34"/><rect width="3" height="3" x="439" y="37"/><rect width="3" height="3" x="445" y="37"/><rect width="3" height="3" x="442" y="40"/><rect width="15" height="3" x="454" y="22"/><rect width="3" height="3" x="454" y="25"/><rect width="3" height="3" x="454" y="28"/><rect width="12" height="3" x="454" y="31"/><rect width="3" height="3" x="454" y="34"/><rect width="3" height="3" x="454" y="37"/><rect width="15" height="3" x="454" y="40"/><rect width="12" height="3" x="472" y="22"/><rect width="3" height="3" x="472" y="25"/><rect width="3" height="3" x="484" y="25"/><rect width="3" height="3" x="472" y="28"/><rect width="3" height="3" x="484" y="28"/><rect width="12" height="3" x="472" y="31"/><rect width="3" height="3" x="472" y="34"/><rect width="3" height="3" x="478" y="34"/><rect width="3" height="3" x="472" y="37"/><rect width="3" height="3" x="481" y="37"/><rect width="3" height="3" x="472" y="40"/><rect width="3" height="3" x="484" y="40"/><rect width="9" height="3" x="493" y="22"/><rect width="3" height="3" x="490" y="25"/><rect width="3" height="3" x="502" y="25"/><rect width="3" height="3" x="502" y="28"/><rect width="3" height="3" x="499" y="31"/><rect width="3" height="3" x="496" y="34"/><rect width="3" height="3" x="496" y="40"/></g><g class="blink"><g fill="#141414"><rect width="2" height="2" x="249" y="58"/><rect width="4" height="2" x="249" y="60"/><rect width="6" height="2" x="249" y="62"/><rect width="8" height="2" x="249" y="64"/><rect width="6" height="2" x="249" y="66"/><rect width="4" height="2" x="249" y="68"/><rect width="2" height="2" x="249" y="70"/><rect width="8" height="2" x="273" y="58"/><rect width="2" height="2" x="273" y="60"/><rect width="2" height="2" x="281" y="60"/><rect width="2" height="2" x="273" y="62"/><rect width="2" height="2" x="281" y="62"/><rect width="8" height="2" x="273" y="64"/><rect width="2" height="2" x="273" y="66"/><rect width="2" height="2" x="273" y="68"/><rect width="2" height="2" x="273" y="70"/><rect width="2" height="2" x="285" y="58"/><rect width="2" height="2" x="285" y="60"/><rect width="2" height="2" x="285" y="62"/><rect width="2" height="2" x="285" y="64"/><rect width="2" height="2" x="285" y="66"/><rect width="2" height="2" x="285" y="68"/><rect width="10" height="2" x="285" y="70"/><rect width="6" height="2" x="299" y="58"/><rect width="2" height="2" x="297" y="60"/><rect width="2" height="2" x="305" y="60"/><rect width="2" height="2" x="297" y="62"/><rect width="2" height="2" x="305" y="62"/><rect width="10" height="2" x="297" y="64"/><rect width="2" height="2" x="297" y="66"/><rect width="2" height="2" x="305" y="66"/><rect width="2" height="2" x="297" y="68"/><rect width="2" height="2" x="305" y="68"/><rect width="2" height="2" x="297" y="70"/><rect width="2" height="2" x="305" y="70"/><rect width="2" height="2" x="309" y="58"/><rect width="2" height="2" x="317" y="58"/><rect width="2" height="2" x="309" y="60"/><rect width="2" height="2" x="317" y="60"/><rect width="2" height="2" x="311" y="62"/><rect width="2" height="2" x="315" y="62"/><rect width="2" height="2" x="313" y="64"/><rect width="2" height="2" x="313" y="66"/><rect width="2" height="2" x="313" y="68"/><rect width="2" height="2" x="313" y="70"/><rect width="6" height="2" x="335" y="58"/><rect width="2" height="2" x="333" y="60"/><rect width="2" height="2" x="341" y="60"/><rect width="2" height="2" x="333" y="62"/><rect width="2" height="2" x="341" y="62"/><rect width="10" height="2" x="333" y="64"/><rect width="2" height="2" x="333" y="66"/><rect width="2" height="2" x="341" y="66"/><rect width="2" height="2" x="333" y="68"/><rect width="2" height="2" x="341" y="68"/><rect width="2" height="2" x="333" y="70"/><rect width="2" height="2" x="341" y="70"/><rect width="6" height="2" x="347" y="58"/><rect width="2" height="2" x="345" y="60"/><rect width="2" height="2" x="353" y="60"/><rect width="2" height="2" x="345" y="62"/><rect width="2" height="2" x="345" y="64"/><rect width="6" height="2" x="349" y="64"/><rect width="2" height="2" x="345" y="66"/><rect width="2" height="2" x="353" y="66"/><rect width="2" height="2" x="345" y="68"/><rect width="2" height="2" x="353" y="68"/><rect width="8" height="2" x="347" y="70"/><rect width="6" height="2" x="359" y="58"/><rect width="2" height="2" x="357" y="60"/><rect width="2" height="2" x="365" y="60"/><rect width="2" height="2" x="357" y="62"/><rect width="2" height="2" x="365" y="62"/><rect width="10" height="2" x="357" y="64"/><rect width="2" height="2" x="357" y="66"/><rect width="2" height="2" x="365" y="66"/><rect width="2" height="2" x="357" y="68"/><rect width="2" height="2" x="365" y="68"/><rect width="2" height="2" x="357" y="70"/><rect width="2" height="2" x="365" y="70"/><rect width="6" height="2" x="371" y="58"/><rect width="2" height="2" x="373" y="60"/><rect width="2" height="2" x="373" y="62"/><rect width="2" height="2" x="373" y="64"/><rect width="2" height="2" x="373" y="66"/><rect width="2" height="2" x="373" y="68"/><rect width="6" height="2" x="371" y="70"/><rect width="2" height="2" x="381" y="58"/><rect width="2" height="2" x="389" y="58"/><rect width="2" height="2" x="381" y="60"/><rect width="2" height="2" x="389" y="60"/><rect width="4" height="2" x="381" y="62"/><rect width="2" height="2" x="389" y="62"/><rect width="2" height="2" x="381" y="64"/><rect width="2" height="2" x="385" y="64"/><rect width="2" height="2" x="389" y="64"/><rect width="2" height="2" x="381" y="66"/><rect width="4" height="2" x="387" y="66"/><rect width="2" height="2" x="381" y="68"/><rect width="2" height="2" x="389" y="68"/><rect width="2" height="2" x="381" y="70"/><rect width="2" height="2" x="389" y="70"/><rect width="6" height="2" x="407" y="58"/><rect width="2" height="2" x="405" y="60"/><rect width="2" height="2" x="413" y="60"/><rect width="2" height="2" x="405" y="62"/><rect width="2" height="2" x="413" y="62"/><rect width="10" height="2" x="405" y="64"/><rect width="2" height="2" x="405" y="66"/><rect width="2" height="2" x="413" y="66"/><rect width="2" height="2" x="405" y="68"/><rect width="2" height="2" x="413" y="68"/><rect width="2" height="2" x="405" y="70"/><rect width="2" height="2" x="413" y="70"/><rect width="10" height="2" x="417" y="58"/><rect width="2" height="2" x="421" y="60"/><rect width="2" height="2" x="421" y="62"/><rect width="2" height="2" x="421" y="64"/><rect width="2" height="2" x="421" y="66"/><rect width="2" height="2" x="421" y="68"/><rect width="2" height="2" x="421" y="70"/><rect width="10" height="2" x="441" y="58"/><rect width="2" height="2" x="445" y="60"/><rect width="2" height="2" x="445" y="62"/><rect width="2" height="2" x="445" y="64"/><rect width="2" height="2" x="445" y="66"/><rect width="2" height="2" x="445" y="68"/><rect width="2" height="2" x="445" y="70"/><rect width="2" height="2" x="453" y="58"/><rect width="2" height="2" x="461" y="58"/><rect width="2" height="2" x="453" y="60"/><rect width="2" height="2" x="461" y="60"/><rect width="2" height="2" x="453" y="62"/><rect width="2" height="2" x="461" y="62"/><rect width="10" height="2" x="453" y="64"/><rect width="2" height="2" x="453" y="66"/><rect width="2" height="2" x="461" y="66"/><rect width="2" height="2" x="453" y="68"/><rect width="2" height="2" x="461" y="68"/><rect width="2" height="2" x="453" y="70"/><rect width="2" height="2" x="461" y="70"/><rect width="10" height="2" x="465" y="58"/><rect width="2" height="2" x="465" y="60"/><rect width="2" height="2" x="465" y="62"/><rect width="8" height="2" x="465" y="64"/><rect width="2" height="2" x="465" y="66"/><rect width="2" height="2" x="465" y="68"/><rect width="10" height="2" x="465" y="70"/><rect width="2" height="2" x="489" y="58"/><rect width="2" height="2" x="489" y="60"/><rect width="2" height="2" x="489" y="62"/><rect width="2" height="2" x="489" y="64"/><rect width="2" height="2" x="489" y="66"/><rect width="2" height="2" x="489" y="68"/><rect width="10" height="2" x="489" y="70"/><rect width="6" height="2" x="503" y="58"/><rect width="2" height="2" x="505" y="60"/><rect width="2" height="2" x="505" y="62"/><rect width="2" height="2" x="505" y="64"/><rect width="2" height="2" x="505" y="66"/><rect width="2" height="2" x="505" y="68"/><rect width="6" height="2" x="503" y="70"/><rect width="2" height="2" x="513" y="58"/><rect width="2" height="2" x="521" y="58"/><rect width="2" height="2" x="513" y="60"/><rect width="2" height="2" x="521" y="60"/><rect width="2" height="2" x="513" y="62"/><rect width="2" height="2" x="521" y="62"/><rect width="2" height="2" x="513" y="64"/><rect width="2" height="2" x="521" y="64"/><rect width="2" height="2" x="513" y="66"/><rect width="2" height="2" x="521" y="66"/><rect width="2" height="2" x="515" y="68"/><rect width="2" height="2" x="519" y="68"/><rect width="2" height="2" x="517" y="70"/><rect width="10" height="2" x="525" y="58"/><rect width="2" height="2" x="525" y="60"/><rect width="2" height="2" x="525" y="62"/><rect width="8" height="2" x="525" y="64"/><rect width="2" height="2" x="525" y="66"/><rect width="2" height="2" x="525" y="68"/><rect width="10" height="2" x="525" y="70"/><rect width="6" height="2" x="551" y="58"/><rect width="2" height="2" x="549" y="60"/><rect width="2" height="2" x="557" y="60"/><rect width="2" height="2" x="549" y="62"/><rect width="2" height="2" x="557" y="62"/><rect width="10" height="2" x="549" y="64"/><rect width="2" height="2" x="549" y="66"/><rect width="2" height="2" x="557" y="66"/><rect width="2" height="2" x="549" y="68"/><rect width="2" height="2" x="557" y="68"/><rect width="2" height="2" x="549" y="70"/><rect width="2" height="2" x="557" y="70"/><rect width="8" height="2" x="561" y="58"/><rect width="2" height="2" x="561" y="60"/><rect width="2" height="2" x="569" y="60"/><rect width="2" height="2" x="561" y="62"/><rect width="2" height="2" x="569" y="62"/><rect width="8" height="2" x="561" y="64"/><rect width="2" height="2" x="561" y="66"/><rect width="2" height="2" x="561" y="68"/><rect width="2" height="2" x="561" y="70"/><rect width="8" height="2" x="573" y="58"/><rect width="2" height="2" x="573" y="60"/><rect width="2" height="2" x="581" y="60"/><rect width="2" height="2" x="573" y="62"/><rect width="2" height="2" x="581" y="62"/><rect width="8" height="2" x="573" y="64"/><rect width="2" height="2" x="573" y="66"/><rect width="2" height="2" x="573" y="68"/><rect width="2" height="2" x="573" y="70"/></g></g></svg>